<svg version="1.1" id="Layer_1" xmlns="http://www.w3.org/2000/svg" xmlns:xlink="http://www.w3.org/1999/xlink" x="0px" y="0px"
	 viewBox="0 0 512 512" style="enable-background:new 0 0 512 512;" xml:space="preserve">
<g>
	<g>
		<g>
			<path d="M438.183,100.732L340.626,3.175C338.593,1.143,335.836,0,332.962,0H81.482c-5.986,0-10.84,4.853-10.84,10.84V501.16
				c0,5.987,4.854,10.84,10.84,10.84h349.037c5.986,0,10.84-4.853,10.84-10.84V108.396
				C441.358,105.522,440.215,102.764,438.183,100.732z M343.801,37.01l60.55,60.549l-0.003-0.002h-60.547V37.01z M419.679,490.321
				H92.321V21.679h186.442v130.076c0,5.987,4.854,10.84,10.84,10.84h130.076V490.321z M419.679,140.915H300.443V21.679h21.679
				v86.717c0,5.987,4.854,10.84,10.84,10.84h86.717V140.915z"/>
			<path d="M119.42,195.276v257.106c0,5.987,4.854,10.84,10.84,10.84h251.48c5.986,0,10.84-4.853,10.84-10.84V195.276
				c0-5.987-4.854-10.84-10.84-10.84H130.26C124.274,184.437,119.42,189.29,119.42,195.276z M319.593,206.116H370.9v29.742h-51.307
				V206.116z M319.593,257.537H370.9v29.742h-51.307V257.537z M319.593,308.958H370.9V338.7h-51.307V308.958z M319.593,360.379
				H370.9v29.742h-51.307V360.379z M319.593,411.8H370.9v29.742h-51.307V411.8z M246.605,206.116h51.308v29.742h-51.308V206.116z
				 M246.605,257.537h51.308v29.742h-51.308V257.537z M246.605,308.958h51.308V338.7h-51.308V308.958z M246.605,360.379h51.308
				v29.742h-51.308V360.379z M246.605,411.8h51.308v29.742h-51.308V411.8z M141.1,206.116h83.826v29.742H141.1V206.116z
				 M141.1,257.537h83.826v29.742H141.1V257.537z M141.1,308.958h83.826V338.7H141.1V308.958z M141.1,360.379h83.826v29.742H141.1
				V360.379z M141.1,411.8h83.826v29.742H141.1V411.8z"/>
			<path d="M135.68,106.933h55.282c5.986,0,10.84-4.853,10.84-10.84s-4.854-10.84-10.84-10.84H135.68
				c-5.986,0-10.84,4.853-10.84,10.84S129.693,106.933,135.68,106.933z"/>
			<path d="M230.527,106.933h2.168c5.986,0,10.84-4.853,10.84-10.84s-4.854-10.84-10.84-10.84h-2.168
				c-5.986,0-10.84,4.853-10.84,10.84S224.54,106.933,230.527,106.933z"/>
		</g>
	</g>
</g>
</svg>
