<svg version="1.1" id="Capa_1" xmlns="http://www.w3.org/2000/svg" xmlns:xlink="http://www.w3.org/1999/xlink" x="0px" y="0px"
	 viewBox="0 0 52 52" style="enable-background:new 0 0 52 52;" xml:space="preserve">
<g>
	<g>
		<path d="M44.5,50V1c0-0.552-0.447-1-1-1h-34c-0.553,0-1,0.448-1,1v49h-5v2h6h3h5h18h5h3h5v-2H44.5z M18.5,50V33h16v17H18.5z
			 M36.5,50V32c0-0.552-0.447-1-1-1h-18c-0.553,0-1,0.448-1,1v18h-3V5h26v45H36.5z M41.5,50V4c0-0.552-0.447-1-1-1h-28
			c-0.553,0-1,0.448-1,1v46h-1V2h32v48H41.5z"/>
		<path d="M35.5,9h-8h-2h-8c-0.553,0-1,0.448-1,1v18c0,0.552,0.447,1,1,1h8v0.028h2V29h8c0.553,0,1-0.448,1-1V10
			C36.5,9.448,36.053,9,35.5,9z M34.5,11v7h-7v-7H34.5z M25.5,11v7h-7v-7H25.5z M18.5,27v-7h7v7H18.5z M27.5,27v-7h7v7H27.5z"/>
	</g>
</g>
</svg>
