<svg version="1.1" id="Layer_1" xmlns="http://www.w3.org/2000/svg" xmlns:xlink="http://www.w3.org/1999/xlink" x="0px" y="0px"
	 viewBox="0 0 512 512" style="enable-background:new 0 0 512 512; fill: rgb(121,9,43);" xml:space="preserve">
<g>
	<g>
		<path d="M503.74,300.395h-71.974V283.13c0-4.562-3.698-8.26-8.26-8.26h-29.236V262.6h19.493c13.676,0,24.802-11.126,24.802-24.801
			c0-13.676-11.126-24.802-24.802-24.802H368.37c-13.676,0-24.802,11.126-24.802,24.802v24.587H336.4v12.483h-48.953v-12.483h-7.026
			V116.941c0-4.356,3.543-7.898,7.897-7.898s7.897,3.543,7.897,7.898v7.091c-2.583,1.396-4.337,4.128-4.337,7.27v23.379
			c0,4.562,3.698,8.26,8.26,8.26h40.989c4.562,0,8.26-3.698,8.26-8.26v-23.379c0-3.142-1.754-5.873-4.337-7.27v-7.091
			c0-31.282-25.45-56.732-56.732-56.732c-31.281,0-56.731,25.45-56.731,56.732v145.446h-7.035v12.483h-48.95v-12.483h-7.168v-24.587
			c0-13.676-11.126-24.802-24.802-24.802H98.238c-13.676,0-24.802,11.126-24.802,24.802c0,13.675,11.126,24.801,24.802,24.801
			h19.493v12.271H88.496c-4.562,0-8.26,3.698-8.26,8.26v17.265H8.26c-2.19,0-4.292,0.87-5.84,2.42c-1.55,1.548-2.42,3.65-2.42,5.84
			c0,28.592,18.18,64.062,48.631,94.883c29.407,29.764,63.471,48.253,88.899,48.253h236.941c25.428,0,59.492-18.49,88.899-48.253
			C493.82,372.717,512,337.247,512,308.655C512,304.094,508.302,300.395,503.74,300.395z M360.088,237.799
			c0-4.567,3.716-8.283,8.283-8.283h45.393c4.567,0,8.283,3.716,8.283,8.283c0,4.566-3.716,8.282-8.283,8.282h-34.922
			c-4.562,0-8.26,3.698-8.26,8.26v8.046h-10.494V237.799z M332.868,146.421h-24.47v-6.86h24.47V146.421z M248.107,116.941
			c0-22.173,18.038-40.213,40.211-40.213c22.173,0,40.213,18.039,40.213,40.213v6.101h-15.796v-6.101
			c0-13.464-10.953-24.418-24.417-24.418c-13.463,0-24.417,10.953-24.417,24.418v145.446h-15.795V116.941z M98.238,246.081
			c-4.567,0-8.283-3.716-8.283-8.282c0-4.567,3.716-8.283,8.283-8.283h45.394c4.567,0,8.283,3.716,8.283,8.283v24.587H141.42v-8.046
			c0-4.562-3.698-8.26-8.26-8.26H98.238z M96.755,291.39h318.493v9.005H96.755V291.39z M451.618,391.928
			c-26.015,26.331-56.297,43.344-77.148,43.344H137.529c-20.851,0-51.132-17.014-77.147-43.344
			c-24.447-24.743-40.125-52.126-43.275-75.013h477.787C491.743,339.802,476.064,367.185,451.618,391.928z"/>
	</g>
</g>
</svg>
