<svg version="1.1" id="Capa_1" xmlns="http://www.w3.org/2000/svg" xmlns:xlink="http://www.w3.org/1999/xlink" x="0px" y="0px"
	 viewBox="0 0 57 57" style="enable-background:new 0 0 57 57;" xml:space="preserve">
<g>
	<g>
		<path d="M49,52v-6h2v-2h-3h-4h-5v-6h2v-2h-3h-4h-5v-7h2v-2h-3h-4h-5v-6h2v-2h-3H9H0v2h8v32c0,0.553,0.447,1,1,1h35h4h9v-2H49z
			 M44,52H10V21h7v7c0,0.553,0.447,1,1,1h6h3v8c0,0.553,0.447,1,1,1h6h3v7c0,0.553,0.447,1,1,1h6h3v6H44z"/>
		<path d="M42,30h10c0.553,0,1-0.447,1-1V16c0-0.553-0.447-1-1-1h-4v-2h-2v2h-4c-0.553,0-1,0.447-1,1v13C41,29.553,41.447,30,42,30z
			 M43,17h3h2h3v11h-8V17z"/>
		<path d="M28,20h10c0.553,0,1-0.447,1-1V6c0-0.553-0.447-1-1-1h-4V3h-2v2h-4c-0.553,0-1,0.447-1,1v13C27,19.553,27.447,20,28,20z
			 M29,7h3h2h3v11h-8V7z"/>
	</g>
</g>
</svg>
